<svg id="Слой_1" data-name="Слой 1" xmlns="http://www.w3.org/2000/svg" viewBox="0 0 1230 484.91">
  <defs>
    <style>
      .cls-1 {
        fill: #e6e6e6;
      }

      .cls-2 {
        fill: #ff307f;
      }
    </style>
  </defs>
  <title>248</title>
  <rect class="cls-1" width="35" height="35" rx="6.06" ry="6.06"/>
  <rect class="cls-1" x="39" width="35" height="35" rx="6.06" ry="6.06"/>
  <rect class="cls-1" x="78" width="35" height="35" rx="6.06" ry="6.06"/>
  <rect class="cls-1" x="117" width="35" height="35" rx="6.06" ry="6.06"/>
  <rect class="cls-1" x="156" width="35" height="35" rx="6.06" ry="6.06"/>
  <rect class="cls-1" x="195" width="35" height="35" rx="6.06" ry="6.06"/>
  <rect class="cls-1" x="234" width="35" height="35" rx="6.06" ry="6.06"/>
  <rect class="cls-1" x="273" width="35" height="35" rx="6.06" ry="6.06"/>
  <rect class="cls-1" x="312" width="35" height="35" rx="6.06" ry="6.06"/>
  <rect class="cls-1" x="351" width="35" height="35" rx="6.06" ry="6.06"/>
  <rect class="cls-1" x="390" width="35" height="35" rx="6.06" ry="6.06"/>
  <rect class="cls-1" x="429" width="35" height="35" rx="6.06" ry="6.06"/>
  <rect class="cls-1" x="468" width="35" height="35" rx="6.06" ry="6.06"/>
  <rect class="cls-1" x="507" width="35" height="35" rx="6.06" ry="6.06"/>
  <rect class="cls-1" x="546" width="35" height="35" rx="6.06" ry="6.06"/>
  <rect class="cls-1" x="649" width="35" height="35" rx="6.06" ry="6.06"/>
  <rect class="cls-1" x="688" width="35" height="35" rx="6.06" ry="6.06"/>
  <rect class="cls-1" x="727" width="35" height="35" rx="6.06" ry="6.06"/>
  <rect class="cls-1" x="766" width="35" height="35" rx="6.06" ry="6.06"/>
  <rect class="cls-1" x="805" width="35" height="35" rx="6.06" ry="6.06"/>
  <rect class="cls-1" x="844" width="35" height="35" rx="6.06" ry="6.06"/>
  <rect class="cls-1" x="883" width="35" height="35" rx="6.06" ry="6.06"/>
  <rect class="cls-1" x="922" width="35" height="35" rx="6.06" ry="6.06"/>
  <rect class="cls-1" x="961" width="35" height="35" rx="6.06" ry="6.06"/>
  <rect class="cls-1" x="1000" width="35" height="35" rx="6.06" ry="6.06"/>
  <rect class="cls-1" x="1039" width="35" height="35" rx="6.06" ry="6.06"/>
  <rect class="cls-1" x="1078" width="35" height="35" rx="6.06" ry="6.06"/>
  <rect class="cls-1" x="1117" width="35" height="35" rx="6.06" ry="6.06"/>
  <rect class="cls-1" x="1156" width="35" height="35" rx="6.06" ry="6.06"/>
  <rect class="cls-1" x="1195" width="35" height="35" rx="6.06" ry="6.06"/>
  <rect class="cls-1" y="39" width="35" height="35" rx="6.06" ry="6.06"/>
  <rect class="cls-1" x="39" y="39" width="35" height="35" rx="6.06" ry="6.06"/>
  <rect class="cls-1" x="78" y="39" width="35" height="35" rx="6.06" ry="6.06"/>
  <rect class="cls-1" x="117" y="39" width="35" height="35" rx="6.06" ry="6.06"/>
  <rect class="cls-1" x="156" y="39" width="35" height="35" rx="6.06" ry="6.06"/>
  <rect class="cls-1" x="195" y="39" width="35" height="35" rx="6.06" ry="6.06"/>
  <rect class="cls-1" x="234" y="39" width="35" height="35" rx="6.06" ry="6.06"/>
  <rect class="cls-1" x="273" y="39" width="35" height="35" rx="6.06" ry="6.06"/>
  <rect class="cls-1" x="312" y="39" width="35" height="35" rx="6.06" ry="6.06"/>
  <rect class="cls-1" x="351" y="39" width="35" height="35" rx="6.06" ry="6.06"/>
  <rect class="cls-1" x="390" y="39" width="35" height="35" rx="6.06" ry="6.06"/>
  <rect class="cls-1" x="429" y="39" width="35" height="35" rx="6.06" ry="6.06"/>
  <rect class="cls-1" x="468" y="39" width="35" height="35" rx="6.06" ry="6.06"/>
  <rect class="cls-1" x="507" y="39" width="35" height="35" rx="6.06" ry="6.06"/>
  <rect class="cls-1" x="688" y="39" width="35" height="35" rx="6.06" ry="6.06"/>
  <rect class="cls-1" x="727" y="39" width="35" height="35" rx="6.06" ry="6.06"/>
  <rect class="cls-1" x="766" y="39" width="35" height="35" rx="6.06" ry="6.06"/>
  <rect class="cls-1" x="805" y="39" width="35" height="35" rx="6.06" ry="6.06"/>
  <rect class="cls-1" x="844" y="39" width="35" height="35" rx="6.06" ry="6.06"/>
  <rect class="cls-1" x="883" y="39" width="35" height="35" rx="6.06" ry="6.06"/>
  <rect class="cls-1" x="922" y="39" width="35" height="35" rx="6.06" ry="6.06"/>
  <rect class="cls-1" x="961" y="39" width="35" height="35" rx="6.06" ry="6.06"/>
  <rect class="cls-1" x="1000" y="39" width="35" height="35" rx="6.06" ry="6.06"/>
  <rect class="cls-1" x="1039" y="39" width="35" height="35" rx="6.06" ry="6.06"/>
  <rect class="cls-1" x="1078" y="39" width="35" height="35" rx="6.06" ry="6.06"/>
  <rect class="cls-1" x="1117" y="39" width="35" height="35" rx="6.06" ry="6.06"/>
  <rect class="cls-1" x="1156" y="39" width="35" height="35" rx="6.06" ry="6.06"/>
  <rect class="cls-1" x="1195" y="39" width="35" height="35" rx="6.06" ry="6.06"/>
  <rect class="cls-1" y="78" width="35" height="35" rx="6.06" ry="6.06"/>
  <rect class="cls-1" x="39" y="78" width="35" height="35" rx="6.06" ry="6.06"/>
  <rect class="cls-1" x="78" y="78" width="35" height="35" rx="6.06" ry="6.06"/>
  <rect class="cls-1" x="117" y="78" width="35" height="35" rx="6.06" ry="6.06"/>
  <rect class="cls-1" x="156" y="78" width="35" height="35" rx="6.06" ry="6.06"/>
  <rect class="cls-1" x="195" y="78" width="35" height="35" rx="6.06" ry="6.06"/>
  <rect class="cls-1" x="234" y="78" width="35" height="35" rx="6.06" ry="6.06"/>
  <rect class="cls-1" x="273" y="78" width="35" height="35" rx="6.06" ry="6.06"/>
  <rect class="cls-1" x="312" y="78" width="35" height="35" rx="6.06" ry="6.06"/>
  <rect class="cls-1" x="351" y="78" width="35" height="35" rx="6.06" ry="6.06"/>
  <rect class="cls-1" x="390" y="78" width="35" height="35" rx="6.06" ry="6.06"/>
  <rect class="cls-1" x="429" y="78" width="35" height="35" rx="6.06" ry="6.06"/>
  <rect class="cls-1" x="468" y="78" width="35" height="35" rx="6.06" ry="6.06"/>
  <rect class="cls-1" x="507" y="78" width="35" height="35" rx="6.06" ry="6.06"/>
  <rect class="cls-1" x="546" y="78" width="35" height="35" rx="6.06" ry="6.06"/>
  <rect class="cls-1" x="649" y="78" width="35" height="35" rx="6.06" ry="6.06"/>
  <rect class="cls-1" x="688" y="78" width="35" height="35" rx="6.06" ry="6.06"/>
  <rect class="cls-1" x="727" y="78" width="35" height="35" rx="6.06" ry="6.06"/>
  <rect class="cls-1" x="766" y="78" width="35" height="35" rx="6.06" ry="6.06"/>
  <rect class="cls-1" x="805" y="78" width="35" height="35" rx="6.06" ry="6.06"/>
  <rect class="cls-1" x="844" y="78" width="35" height="35" rx="6.06" ry="6.06"/>
  <rect class="cls-1" x="883" y="78" width="35" height="35" rx="6.06" ry="6.06"/>
  <rect class="cls-1" x="922" y="78" width="35" height="35" rx="6.06" ry="6.06"/>
  <rect class="cls-1" x="961" y="78" width="35" height="35" rx="6.06" ry="6.06"/>
  <rect class="cls-1" x="1000" y="78" width="35" height="35" rx="6.06" ry="6.06"/>
  <rect class="cls-1" x="1039" y="78" width="35" height="35" rx="6.06" ry="6.06"/>
  <rect class="cls-1" x="1078" y="78" width="35" height="35" rx="6.06" ry="6.06"/>
  <rect class="cls-1" x="1117" y="78" width="35" height="35" rx="6.06" ry="6.06"/>
  <rect class="cls-1" x="1156" y="78" width="35" height="35" rx="6.06" ry="6.06"/>
  <rect class="cls-1" x="1195" y="78" width="35" height="35" rx="6.06" ry="6.06"/>
  <rect class="cls-1" y="117" width="35" height="35" rx="6.06" ry="6.06"/>
  <rect class="cls-1" x="39" y="117" width="35" height="35" rx="6.06" ry="6.06"/>
  <rect class="cls-1" x="78" y="117" width="35" height="35" rx="6.06" ry="6.06"/>
  <rect class="cls-1" x="117" y="117" width="35" height="35" rx="6.06" ry="6.06"/>
  <rect class="cls-1" x="156" y="117" width="35" height="35" rx="6.06" ry="6.06"/>
  <rect class="cls-1" x="195" y="117" width="35" height="35" rx="6.06" ry="6.06"/>
  <rect class="cls-1" x="234" y="117" width="35" height="35" rx="6.06" ry="6.06"/>
  <rect class="cls-1" x="273" y="117" width="35" height="35" rx="6.06" ry="6.06"/>
  <rect class="cls-1" x="312" y="117" width="35" height="35" rx="6.06" ry="6.06"/>
  <rect class="cls-1" x="351" y="117" width="35" height="35" rx="6.06" ry="6.06"/>
  <rect class="cls-1" x="390" y="117" width="35" height="35" rx="6.06" ry="6.06"/>
  <rect class="cls-1" x="429" y="117" width="35" height="35" rx="6.06" ry="6.06"/>
  <rect class="cls-1" x="468" y="117" width="35" height="35" rx="6.06" ry="6.06"/>
  <rect class="cls-1" x="507" y="117" width="35" height="35" rx="6.06" ry="6.06"/>
  <rect class="cls-1" x="546" y="117" width="35" height="35" rx="6.06" ry="6.06"/>
  <rect class="cls-1" x="649" y="117" width="35" height="35" rx="6.06" ry="6.06"/>
  <rect class="cls-1" x="688" y="117" width="35" height="35" rx="6.06" ry="6.06"/>
  <rect class="cls-1" x="727" y="117" width="35" height="35" rx="6.06" ry="6.06"/>
  <rect class="cls-1" x="766" y="117" width="35" height="35" rx="6.06" ry="6.06"/>
  <rect class="cls-1" x="805" y="117" width="35" height="35" rx="6.06" ry="6.06"/>
  <rect class="cls-1" x="844" y="117" width="35" height="35" rx="6.06" ry="6.06"/>
  <rect class="cls-1" x="883" y="117" width="35" height="35" rx="6.06" ry="6.06"/>
  <rect class="cls-1" x="922" y="117" width="35" height="35" rx="6.06" ry="6.06"/>
  <rect class="cls-1" x="961" y="117" width="35" height="35" rx="6.06" ry="6.06"/>
  <rect class="cls-1" x="1000" y="117" width="35" height="35" rx="6.06" ry="6.06"/>
  <rect class="cls-1" x="1039" y="117" width="35" height="35" rx="6.06" ry="6.06"/>
  <rect class="cls-1" x="1078" y="117" width="35" height="35" rx="6.06" ry="6.06"/>
  <rect class="cls-1" x="1117" y="117" width="35" height="35" rx="6.06" ry="6.06"/>
  <rect class="cls-1" x="1156" y="117" width="35" height="35" rx="6.06" ry="6.06"/>
  <rect class="cls-1" x="1195" y="117" width="35" height="35" rx="6.06" ry="6.06"/>
  <rect class="cls-1" y="156" width="35" height="35" rx="6.06" ry="6.06"/>
  <rect class="cls-1" x="39" y="156" width="35" height="35" rx="6.06" ry="6.06"/>
  <rect class="cls-1" x="78" y="156" width="35" height="35" rx="6.06" ry="6.06"/>
  <rect class="cls-1" x="117" y="156" width="35" height="35" rx="6.06" ry="6.06"/>
  <rect class="cls-1" x="156" y="156" width="35" height="35" rx="6.06" ry="6.06"/>
  <rect class="cls-1" x="195" y="156" width="35" height="35" rx="6.06" ry="6.06"/>
  <rect class="cls-1" x="234" y="156" width="35" height="35" rx="6.06" ry="6.06"/>
  <rect class="cls-1" x="273" y="156" width="35" height="35" rx="6.06" ry="6.06"/>
  <rect class="cls-1" x="312" y="156" width="35" height="35" rx="6.06" ry="6.06"/>
  <rect class="cls-1" x="351" y="156" width="35" height="35" rx="6.06" ry="6.06"/>
  <rect class="cls-1" x="390" y="156" width="35" height="35" rx="6.06" ry="6.06"/>
  <rect class="cls-1" x="429" y="156" width="35" height="35" rx="6.06" ry="6.06"/>
  <rect class="cls-1" x="468" y="156" width="35" height="35" rx="6.06" ry="6.06"/>
  <rect class="cls-1" x="507" y="156" width="35" height="35" rx="6.06" ry="6.06"/>
  <rect class="cls-1" x="546" y="156" width="35" height="35" rx="6.06" ry="6.06"/>
  <rect class="cls-1" x="649" y="156" width="35" height="35" rx="6.06" ry="6.06"/>
  <rect class="cls-1" x="688" y="156" width="35" height="35" rx="6.06" ry="6.06"/>
  <rect class="cls-1" x="727" y="156" width="35" height="35" rx="6.06" ry="6.06"/>
  <rect class="cls-1" x="766" y="156" width="35" height="35" rx="6.06" ry="6.06"/>
  <rect class="cls-1" x="805" y="156" width="35" height="35" rx="6.06" ry="6.06"/>
  <rect class="cls-1" x="844" y="156" width="35" height="35" rx="6.06" ry="6.06"/>
  <rect class="cls-1" x="883" y="156" width="35" height="35" rx="6.06" ry="6.06"/>
  <rect class="cls-1" x="922" y="156" width="35" height="35" rx="6.06" ry="6.06"/>
  <rect class="cls-1" x="961" y="156" width="35" height="35" rx="6.06" ry="6.06"/>
  <rect class="cls-1" x="1000" y="156" width="35" height="35" rx="6.06" ry="6.06"/>
  <rect class="cls-1" x="1039" y="156" width="35" height="35" rx="6.06" ry="6.06"/>
  <rect class="cls-1" x="1078" y="156" width="35" height="35" rx="6.06" ry="6.06"/>
  <rect class="cls-1" x="1117" y="156" width="35" height="35" rx="6.06" ry="6.06"/>
  <rect class="cls-1" x="1156" y="156" width="35" height="35" rx="6.06" ry="6.06"/>
  <rect class="cls-1" x="1195" y="156" width="35" height="35" rx="6.06" ry="6.06"/>
  <rect class="cls-1" x="39" y="195" width="35" height="35" rx="6.06" ry="6.06"/>
  <rect class="cls-1" x="78" y="195" width="35" height="35" rx="6.06" ry="6.06"/>
  <rect class="cls-1" x="117" y="195" width="35" height="35" rx="6.06" ry="6.06"/>
  <rect class="cls-1" x="156" y="195" width="35" height="35" rx="6.06" ry="6.06"/>
  <rect class="cls-1" x="195" y="195" width="35" height="35" rx="6.06" ry="6.06"/>
  <rect class="cls-1" x="234" y="195" width="35" height="35" rx="6.06" ry="6.06"/>
  <rect class="cls-1" x="273" y="195" width="35" height="35" rx="6.06" ry="6.06"/>
  <rect class="cls-1" x="312" y="195" width="35" height="35" rx="6.06" ry="6.06"/>
  <rect class="cls-1" x="351" y="195" width="35" height="35" rx="6.06" ry="6.06"/>
  <rect class="cls-1" x="390" y="195" width="35" height="35" rx="6.06" ry="6.06"/>
  <rect class="cls-1" x="429" y="195" width="35" height="35" rx="6.06" ry="6.06"/>
  <rect class="cls-1" x="468" y="195" width="35" height="35" rx="6.06" ry="6.06"/>
  <rect class="cls-1" x="507" y="195" width="35" height="35" rx="6.06" ry="6.06"/>
  <rect class="cls-1" x="546" y="195" width="35" height="35" rx="6.06" ry="6.06"/>
  <rect class="cls-1" x="649" y="195" width="35" height="35" rx="6.06" ry="6.06"/>
  <rect class="cls-1" x="688" y="195" width="35" height="35" rx="6.06" ry="6.06"/>
  <rect class="cls-1" x="727" y="195" width="35" height="35" rx="6.06" ry="6.06"/>
  <rect class="cls-1" x="766" y="195" width="35" height="35" rx="6.06" ry="6.06"/>
  <rect class="cls-1" x="805" y="195" width="35" height="35" rx="6.06" ry="6.06"/>
  <rect class="cls-1" x="844" y="195" width="35" height="35" rx="6.06" ry="6.06"/>
  <rect class="cls-1" x="883" y="195" width="35" height="35" rx="6.06" ry="6.06"/>
  <rect class="cls-1" x="922" y="195" width="35" height="35" rx="6.06" ry="6.06"/>
  <rect class="cls-1" x="961" y="195" width="35" height="35" rx="6.06" ry="6.06"/>
  <rect class="cls-1" x="1000" y="195" width="35" height="35" rx="6.06" ry="6.06"/>
  <rect class="cls-1" x="1039" y="195" width="35" height="35" rx="6.06" ry="6.06"/>
  <rect class="cls-1" x="1078" y="195" width="35" height="35" rx="6.06" ry="6.06"/>
  <rect class="cls-1" x="1117" y="195" width="35" height="35" rx="6.06" ry="6.06"/>
  <rect class="cls-1" x="1156" y="195" width="35" height="35" rx="6.06" ry="6.06"/>
  <rect class="cls-1" x="78" y="234" width="35" height="35" rx="6.06" ry="6.06"/>
  <rect class="cls-1" x="117" y="234" width="35" height="35" rx="6.06" ry="6.06"/>
  <rect class="cls-1" x="156" y="234" width="35" height="35" rx="6.06" ry="6.06"/>
  <rect class="cls-1" x="195" y="234" width="35" height="35" rx="6.06" ry="6.06"/>
  <rect class="cls-1" x="234" y="234" width="35" height="35" rx="6.06" ry="6.06"/>
  <rect class="cls-1" x="273" y="234" width="35" height="35" rx="6.06" ry="6.06"/>
  <rect class="cls-1" x="312" y="234" width="35" height="35" rx="6.06" ry="6.06"/>
  <rect class="cls-1" x="351" y="234" width="35" height="35" rx="6.06" ry="6.06"/>
  <rect class="cls-1" x="390" y="234" width="35" height="35" rx="6.06" ry="6.06"/>
  <rect class="cls-1" x="429" y="234" width="35" height="35" rx="6.06" ry="6.06"/>
  <rect class="cls-1" x="468" y="234" width="35" height="35" rx="6.06" ry="6.06"/>
  <rect class="cls-1" x="507" y="234" width="35" height="35" rx="6.06" ry="6.06"/>
  <rect class="cls-1" x="546" y="234" width="35" height="35" rx="6.06" ry="6.06"/>
  <rect class="cls-1" x="649" y="234" width="35" height="35" rx="6.06" ry="6.06"/>
  <rect class="cls-1" x="688" y="234" width="35" height="35" rx="6.06" ry="6.06"/>
  <rect class="cls-1" x="727" y="234" width="35" height="35" rx="6.06" ry="6.06"/>
  <rect class="cls-1" x="766" y="234" width="35" height="35" rx="6.06" ry="6.06"/>
  <rect class="cls-1" x="805" y="234" width="35" height="35" rx="6.06" ry="6.06"/>
  <rect class="cls-1" x="844" y="234" width="35" height="35" rx="6.06" ry="6.06"/>
  <rect class="cls-1" x="883" y="234" width="35" height="35" rx="6.06" ry="6.06"/>
  <rect class="cls-1" x="922" y="234" width="35" height="35" rx="6.06" ry="6.06"/>
  <rect class="cls-1" x="961" y="234" width="35" height="35" rx="6.06" ry="6.06"/>
  <rect class="cls-1" x="1000" y="234" width="35" height="35" rx="6.06" ry="6.06"/>
  <rect class="cls-1" x="1039" y="234" width="35" height="35" rx="6.06" ry="6.06"/>
  <rect class="cls-1" x="1078" y="234" width="35" height="35" rx="6.06" ry="6.06"/>
  <rect class="cls-1" x="1117" y="234" width="35" height="35" rx="6.06" ry="6.06"/>
  <rect class="cls-1" x="117" y="273" width="35" height="35" rx="6.06" ry="6.06"/>
  <rect class="cls-1" x="156" y="273" width="35" height="35" rx="6.06" ry="6.06"/>
  <rect class="cls-1" x="195" y="273" width="35" height="35" rx="6.06" ry="6.06"/>
  <rect class="cls-1" x="234" y="273" width="35" height="35" rx="6.06" ry="6.06"/>
  <rect class="cls-1" x="273" y="273" width="35" height="35" rx="6.06" ry="6.06"/>
  <rect class="cls-1" x="312" y="273" width="35" height="35" rx="6.06" ry="6.06"/>
  <rect class="cls-1" x="351" y="273" width="35" height="35" rx="6.06" ry="6.06"/>
  <rect class="cls-1" x="390" y="273" width="35" height="35" rx="6.06" ry="6.06"/>
  <rect class="cls-1" x="429" y="273" width="35" height="35" rx="6.06" ry="6.06"/>
  <rect class="cls-1" x="468" y="273" width="35" height="35" rx="6.06" ry="6.06"/>
  <rect class="cls-1" x="507" y="273" width="35" height="35" rx="6.06" ry="6.06"/>
  <rect class="cls-1" x="546" y="273" width="35" height="35" rx="6.06" ry="6.06"/>
  <rect class="cls-1" x="649" y="273" width="35" height="35" rx="6.06" ry="6.06"/>
  <rect class="cls-1" x="688" y="273" width="35" height="35" rx="6.06" ry="6.06"/>
  <rect class="cls-1" x="727" y="273" width="35" height="35" rx="6.06" ry="6.06"/>
  <rect class="cls-1" x="766" y="273" width="35" height="35" rx="6.06" ry="6.06"/>
  <rect class="cls-1" x="805" y="273" width="35" height="35" rx="6.06" ry="6.06"/>
  <rect class="cls-1" x="844" y="273" width="35" height="35" rx="6.06" ry="6.06"/>
  <rect class="cls-1" x="883" y="273" width="35" height="35" rx="6.06" ry="6.06"/>
  <rect class="cls-1" x="922" y="273" width="35" height="35" rx="6.06" ry="6.06"/>
  <rect class="cls-1" x="961" y="273" width="35" height="35" rx="6.06" ry="6.06"/>
  <rect class="cls-1" x="1000" y="273" width="35" height="35" rx="6.06" ry="6.06"/>
  <rect class="cls-1" x="1039" y="273" width="35" height="35" rx="6.06" ry="6.06"/>
  <rect class="cls-1" x="1078" y="273" width="35" height="35" rx="6.06" ry="6.06"/>
  <rect class="cls-1" x="156" y="312" width="35" height="35" rx="6.06" ry="6.06"/>
  <rect class="cls-1" x="195" y="312" width="35" height="35" rx="6.06" ry="6.06"/>
  <rect class="cls-1" x="234" y="312" width="35" height="35" rx="6.06" ry="6.06"/>
  <rect class="cls-1" x="273" y="312" width="35" height="35" rx="6.06" ry="6.06"/>
  <rect class="cls-1" x="312" y="312" width="35" height="35" rx="6.06" ry="6.06"/>
  <rect class="cls-1" x="351" y="312" width="35" height="35" rx="6.06" ry="6.06"/>
  <rect class="cls-1" x="390" y="312" width="35" height="35" rx="6.06" ry="6.06"/>
  <rect class="cls-1" x="429" y="312" width="35" height="35" rx="6.06" ry="6.06"/>
  <rect class="cls-1" x="468" y="312" width="35" height="35" rx="6.06" ry="6.06"/>
  <rect class="cls-1" x="546" y="312" width="35" height="35" rx="6.06" ry="6.06"/>
  <rect class="cls-1" x="507" y="312" width="35" height="35" rx="6.06" ry="6.06"/>
  <rect class="cls-1" x="649" y="312" width="35" height="35" rx="6.06" ry="6.06"/>
  <rect class="cls-1" x="688" y="312" width="35" height="35" rx="6.06" ry="6.06"/>
  <rect class="cls-1" x="727" y="312" width="35" height="35" rx="6.06" ry="6.06"/>
  <rect class="cls-1" x="766" y="312" width="35" height="35" rx="6.06" ry="6.06"/>
  <rect class="cls-1" x="805" y="312" width="35" height="35" rx="6.06" ry="6.06"/>
  <rect class="cls-1" x="844" y="312" width="35" height="35" rx="6.06" ry="6.06"/>
  <rect class="cls-1" x="883" y="312" width="35" height="35" rx="6.06" ry="6.06"/>
  <rect class="cls-1" x="922" y="312" width="35" height="35" rx="6.06" ry="6.06"/>
  <rect class="cls-1" x="961" y="312" width="35" height="35" rx="6.06" ry="6.06"/>
  <rect class="cls-1" x="1000" y="312" width="35" height="35" rx="6.06" ry="6.06"/>
  <rect class="cls-1" x="1039" y="312" width="35" height="35" rx="6.06" ry="6.06"/>
  <g>
    <path class="cls-2" d="M844.89,434.91h-430a12,12,0,0,0-12,12v43a12,12,0,0,0,12,12h430a12,12,0,0,0,12-12v-43A12,12,0,0,0,844.89,434.91ZM631.35,459.24a1.85,1.85,0,0,0,2.06,1.81,1.88,1.88,0,0,0,2.08-1.81h1.07c0,1.76-1.28,2.73-3.15,2.73s-3.09-1-3.13-2.73Zm-80.26,15.35v-14.7h9.34v1.34H552.6l0,13.35Zm17.39,0H567v-9.72h-5.29l-.15,2.73c-.19,3.86-.67,7.14-3,7.14a4.17,4.17,0,0,1-1.07-.17l.1-1.28a2.7,2.7,0,0,0,.52.08c1.83,0,2-3,2.14-5.88l.19-3.95h8.08Zm12.52,0h-1.43v-1.72a4.15,4.15,0,0,1-3.8,1.83c-2.5,0-4-1.3-4-3.21,0-1.7,1.09-3.13,4.26-3.13h3.51v-.67c0-1.89-1.07-2.92-3.13-2.92a5.63,5.63,0,0,0-3.67,1.3l-.67-1.11a7,7,0,0,1,4.49-1.49c2.86,0,4.47,1.43,4.47,4.28Zm9,0h-5v-11h4.87c2.5,0,4,1,4,2.83a2.56,2.56,0,0,1-1.87,2.5,2.55,2.55,0,0,1,2.25,2.71C594.24,473.5,592.85,474.59,590,474.59Zm17.68,0h-1.49v-4.87h-6.95v4.87h-1.49v-11h1.49v4.89h6.95v-4.89h1.49Zm8.61,0-4.37,0v-11h1.49v3.86l3.15,0c2.77,0,4.26,1.26,4.26,3.53S619.19,474.65,616.27,474.61Zm7.87,0h-1.49v-11h1.49Zm14.43,0h-1.49v-8.78l-7.35,8.78h-1.34v-11h1.49v8.78l7.37-8.78h1.32Zm12.77.13a6.1,6.1,0,0,1-4.49-1.68l.88-.88a5,5,0,0,0,3.55,1.32,4.36,4.36,0,0,0,4.49-3.93h-5.9v-1.13h5.88a4.32,4.32,0,0,0-4.47-3.74,5,5,0,0,0-3.55,1.32l-.88-.86a6.1,6.1,0,0,1,4.49-1.68,5.63,5.63,0,1,1,0,11.25Zm17.07-.13-4.07-4.91h-2.52v4.91h-1.49v-11h1.49v4.85h2.54l3.88-4.85h1.62l-4.35,5.35,4.66,5.69Zm9.81.1a4.82,4.82,0,0,1-4.2-2.18v6.15h-1.49V463.54H674v2.18a4.81,4.81,0,0,1,4.26-2.27,5.62,5.62,0,0,1,0,11.23Zm16.93-.1h-1.43v-1.72a4.15,4.15,0,0,1-3.8,1.83c-2.5,0-4-1.3-4-3.21,0-1.7,1.09-3.13,4.26-3.13h3.51v-.67c0-1.89-1.07-2.92-3.13-2.92a5.63,5.63,0,0,0-3.67,1.3l-.67-1.11a7,7,0,0,1,4.49-1.49c2.86,0,4.47,1.43,4.47,4.28Zm13.9,0h-1.49v-4.87h-6.95v4.87h-1.49v-11h1.49v4.89h6.95v-4.89H709Z" transform="translate(-13 -17)"/>
    <path class="cls-2" d="M678.11,464.76a4.31,4.31,0,1,0,4.12,4.3A4.06,4.06,0,0,0,678.11,464.76Z" transform="translate(-13 -17)"/>
    <path class="cls-2" d="M573.2,471.44c0,1.28,1,2.08,2.79,2.08a3.53,3.53,0,0,0,3.51-2.25v-1.81H576C573.89,469.46,573.2,470.3,573.2,471.44Z" transform="translate(-13 -17)"/>
    <path class="cls-2" d="M592.37,466.57c0-1.24-.94-1.85-2.65-1.85h-3.32v3.74h3.32C591.43,468.46,592.37,467.81,592.37,466.57Z" transform="translate(-13 -17)"/>
    <path class="cls-2" d="M687.35,471.44c0,1.28,1,2.08,2.79,2.08a3.53,3.53,0,0,0,3.51-2.25v-1.81h-3.46C688,469.46,687.35,470.3,687.35,471.44Z" transform="translate(-13 -17)"/>
    <path class="cls-2" d="M616.19,468.56l-2.79,0v4.91l2.79,0c2,0,3.11-.84,3.11-2.5S618.24,468.58,616.19,468.56Z" transform="translate(-13 -17)"/>
    <path class="cls-2" d="M590.06,469.57h-3.65v3.84h3.51c1.87,0,2.86-.59,2.86-1.91S591.93,469.57,590.06,469.57Z" transform="translate(-13 -17)"/>
  </g>
</svg>
